<?xml version="1.0" standalone="no"?>
<!DOCTYPE svg PUBLIC "-//W3C//DTD SVG 1.1//EN" "http://www.w3.org/Graphics/SVG/1.1/DTD/svg11.dtd" >
<!--
2013-9-30: Created.
-->
<svg>
<metadata>
Created by iconfont
</metadata>
<defs>

<font id="iconfont" horiz-adv-x="1024" >
  <font-face
    font-family="iconfont"
    font-weight="500"
    font-stretch="normal"
    units-per-em="1024"
    ascent="896"
    descent="-128"
  />
    <missing-glyph />
    
    <glyph glyph-name="691xunlian" unicode="&#59945;" d="M674.307619 694.47226 592.990592 694.47226 592.990592 747.307605 422.73393 747.307605 422.73393 694.47226 349.040535 694.47226 349.040535 638.566996 674.307619 638.566996ZM709.883883 684.342552l0-86.398766L311.660182 597.943786l0 86.398766L130.501216 684.342552l0-830.956356 762.344698 0L892.845914 684.342552 709.883883 684.342552zM507.862773 122.083891l-46.719044-46.719044L294.933219 241.575356l46.719044 46.718021L460.851063 169.094578 697.510064 405.753579l46.719044-46.718021L507.569084 122.376557 507.862773 122.083891z"  horiz-adv-x="1024" />

    
    <glyph glyph-name="shezhi" unicode="&#59063;" d="M194.158537 637.389034M642.566196-5.92264M950.443215 476.586698c-4.846378 27.124777-20.168342 44.515866-38.862099 44.072775l-3.895727 0c-64.208371 0-116.447129 55.32812-116.447129 123.32784 0 22.407336 10.057053 46.985104 10.130731 47.166229 9.91686 23.64349 2.286066 52.645011-17.748223 67.450205l-1.103124 0.821715L670.541341 825.308985l-1.172709 0.544399c-6.633071 3.054569-13.919011 4.600785-21.644973 4.600785-15.936971 0-31.582299-6.743588-41.821501-18.003026-13.676487-14.950504-56.787354-53.738925-91.560322-53.738925-35.107589 0-78.478376 39.573297-92.201935 54.787814-10.298554 11.494799-26.054399 18.356067-42.154076 18.356067-7.574512 0-14.722306-1.49198-21.253046-4.441149l-1.207501-0.543376-115.934452-67.446112-1.137916-0.837064c-20.084431-14.777565-27.746948-43.773969-17.84953-67.381643 0.105401-0.245593 10.157337-24.817222 10.157337-47.219441 0-67.99972-52.241828-123.32784-116.448152-123.32784l-3.895727 0c-18.717294 0.468674-34.019815-16.953114-38.863123-44.072775-0.381693-2.143826-9.372461-52.944839-9.372461-92.966345 0-40.022529 8.990768-90.818425 9.372461-92.962252 4.787026-26.779923 19.763113-44.084031 38.157042-44.084031 0.231267 0 0.468674 0.00614 0.705058 0.010233l3.895727 0c64.206324 0 116.448152-55.32812 116.448152-123.328863 0-22.406313-10.057053-46.984081-10.132778-47.166229-9.911744-23.62814-2.300392-52.630684 17.699104-67.452251l1.091868-0.805342 109.853967-65.065901 1.158383-0.537236c6.623861-3.080152 13.872962-4.644787 21.560038-4.644787 16.134469 0 31.859615 7.018857 42.063001 18.767436 12.876262 14.81952 57.712423 57.139372 93.603865 57.139372 36.143175 0 80.295767-42.073234 94.230128-58.250682 10.226922-11.954263 26.064632-19.088754 42.355667-19.094894l0.004093 0c7.53051 0 14.653745 1.511423 21.168112 4.487198l1.189082 0.541329 113.864304 66.651003 1.12359 0.831948c20.048615 14.793938 27.691689 43.796482 17.798365 67.38676-0.100284 0.245593-10.151197 24.813129-10.151197 47.214325 0 67.99972 52.238758 123.328863 116.447129 123.328863l3.891633 0c18.696828-0.404206 34.018791 16.954137 38.860053 44.073798 0.38988 2.14485 9.379625 52.943816 9.379625 92.966345S950.826955 474.442872 950.443215 476.586698zM886.79664 304.107415c-86.385463-4.789073-155.292855-81.354889-155.292855-174.777629 0-31.234375 11.376095-61.186548 13.862729-67.358107l-103.047957-60.819181c-0.048095-0.004093-0.106424-0.004093-0.163729-0.004093-1.465374 0-2.858094 0.583285-3.351328 0.927115-1.853208 2.164293-16.756639 19.256576-38.260395 36.308951-32.054043 25.418926-62.570058 38.308491-90.692558 38.308491-27.855418 0-58.141188-12.647041-90.00899-37.588083-21.38096-16.738219-36.22197-33.515325-38.081317-35.643802-0.491187-0.339738-1.866511-0.903579-3.319605-0.903579-0.083911 0-0.156566 0-0.220011 0.004093l-99.380428 59.341526c2.438539 6.045693 13.892405 36.083823 13.892405 67.430762 0 93.424786-68.906369 169.984463-155.287739 174.779675-1.24741 7.353478-7.996115 48.577369-7.996115 79.517031 0 30.943756 6.748704 72.184019 7.990998 79.520101 86.386486 4.79112 155.292855 81.353866 155.292855 174.777629 0 31.18014-11.33107 61.077054-13.848403 67.326385l105.002472 61.588707c0.102331 0.005117 0.225127 0.010233 0.361227 0.010233 1.741667 0 3.375887-0.692778 3.917216-1.083681 1.705851-1.90028 16.46602-18.120706 37.70474-34.282804 31.445176-23.937179 61.226456-36.07359 88.517009-36.07359 27.027563 0 56.56939 11.903098 87.813998 35.375695 21.107737 15.857153 35.805484 31.767518 37.506219 33.638121 0.535189 0.384763 2.15099 1.057075 3.875261 1.057075 0.165776 0 0.308015-0.00921 0.425695-0.01535l101.374852-60.144822c-2.468215-6.124488-13.879102-36.111452-13.879102-67.394946 0-93.423763 68.907393-169.986509 155.292855-174.777629 1.245364-7.352455 7.993045-48.581462 7.993045-79.520101C894.788661 352.68376 888.04098 311.438381 886.79664 304.107415zM511.996418 548.239622c-85.510536 0-155.077961-73.677023-155.077961-164.238598 0-90.563622 69.567425-164.239622 155.077961-164.239622 85.510536 0 155.084101 73.676 155.084101 164.239622C667.080519 474.562599 597.505931 548.239622 511.996418 548.239622zM511.996418 289.437298c-49.232285 0-89.284489 42.424228-89.284489 94.565772 0 52.140521 40.052205 94.559633 89.284489 94.559633 49.237401 0 89.290629-42.419112 89.290629-94.559633C601.287047 331.861526 561.229726 289.437298 511.996418 289.437298zM509.812683 493.73424"  horiz-adv-x="1024" />

    
    <glyph glyph-name="jiating" unicode="&#58911;" d="M501.76 250.88c61.44 43.008 100.352 112.64 100.352 192.512 0 131.072-106.496 235.52-235.52 235.52-131.072 0-235.52-106.496-235.52-235.52 0-81.92 40.96-153.6 104.448-196.608C108.544 201.728 20.48 91.136 20.48-68.608c0-53.248 708.608-53.248 708.608 0C729.088 95.232 634.88 207.872 501.76 250.88zM768 455.68c61.44 43.008 100.352 112.64 100.352 192.512 0 131.072-106.496 235.52-235.52 235.52-102.4 0-188.416-65.536-221.184-155.648 135.168-20.48 239.616-133.12 239.616-272.384 0-73.728-20.48-133.12-75.776-194.56 81.92-30.72 137.216-88.064 172.032-163.84 135.168 4.096 249.856 16.384 249.856 38.912C995.328 300.032 901.12 412.672 768 455.68z"  horiz-adv-x="1024" />

    
    <glyph glyph-name="shehuiguanxi" unicode="&#59059;" d="M477.866667 640c-141.380267 0-256-114.619733-256-256s114.619733-256 256-256 256 114.619733 256 256S619.246933 640 477.866667 640zM927.726933 483.652267C882.176 690.2272 698.129067 844.8 477.866667 844.8c-45.8752 0-90.129067-6.792533-131.9424-19.268267C328.5504 857.344 294.792533 878.933333 256 878.933333c-56.558933 0-102.4-45.858133-102.4-102.4 0-18.8928 5.205333-36.539733 14.1312-51.729067C75.1616 640.529067 17.066667 519.048533 17.066667 384c0-132.130133 55.688533-251.170133 144.776533-335.2064C156.552533 36.437333 153.6 22.8352 153.6 8.533333c0-56.541867 45.841067-102.4 102.4-102.4 32.699733 0 61.7472 15.377067 80.503467 39.253333C381.064533-68.9664 428.526933-76.8 477.866667-76.8c220.2624 0 404.309333 154.5728 449.860267 361.130667C973.1072 294.8608 1006.933333 335.445333 1006.933333 384 1006.933333 432.554667 973.1072 473.1392 927.726933 483.652267zM875.537067 285.832533C831.556267 107.025067 670.225067-25.6 477.866667-25.6c-42.069333 0-82.6368 6.365867-120.849067 18.141867C357.853867-2.235733 358.4 3.089067 358.4 8.533333c0 56.541867-45.858133 102.4-102.4 102.4-23.6032 0-45.277867-8.072533-62.600533-21.486933C116.292267 163.925333 68.266667 268.3392 68.266667 384c0 120.8832 52.394667 229.495467 135.662933 304.469333C219.204267 679.424 236.970667 674.133333 256 674.133333c56.32 0 101.9904 45.482667 102.365867 101.700267C396.168533 787.3536 436.292267 793.6 477.866667 793.6c192.3584 0 353.6896-132.642133 397.6704-311.432533C833.109333 469.6576 802.133333 430.472533 802.133333 384S833.109333 298.3424 875.537067 285.832533z"  horiz-adv-x="1024" />

    
    <glyph glyph-name="qita" unicode="&#59025;" d="M528-63.136c-281.632 0-399.776 99.968-399.776 305.376 0 170.144 133.952 347.744 296.32 403.776h206.848c162.4-56.032 296.32-233.6 296.32-403.776 0-205.44-118.08-305.376-399.744-305.376z m110.752 337.536v0.064a33.856 33.856 0 0 1 33.824 33.728c0 18.56-15.136 33.6-33.824 33.728v0.096H570.24c0.128 0.768-0.096 1.44-0.032 2.176l80.352 81.536c13.12 14.624 6.432 26.752-6.816 40.032-13.312 13.344-35.104 16.16-45.888 4.512l-69.088-73.088-74.624 74.08c-9.472 9.344-27.84 6.304-41.056-6.816-13.216-13.12-16.32-31.36-6.848-40.736l76.32-75.744a15.968 15.968 0 0 1-2.88-5.952h-62.08v-0.064h-0.16c-18.784 0-34.016-15.104-34.016-33.76a33.92 33.92 0 0 1 34.016-33.76l0.192 0.032v-0.064h68v-33.6H417.6v-0.128h-0.192c-18.784 0-34.016-15.072-34.016-33.728a33.92 33.92 0 0 1 34.016-33.76h68.192v-33.984h0.704a42.368 42.368 0 0 1 41.696-50.4 42.368 42.368 0 0 1 41.664 50.4h0.416v33.984h68.672a33.856 33.856 0 0 1 33.824 33.76c0 18.56-15.104 33.6-33.824 33.728v0.128h-68.672v33.6h68.672zM689.6 780.8l-7.136-8.864-0.416-0.512-60.48-75.008h-204.128l-60.352 74.88c-0.448 0.416-0.736 0.96-1.152 1.408l-6.528 8.096 1.152 2.304c-0.576 2.08-1.28 4.096-1.28 6.336a25.28 25.28 0 0 0 16.32 23.52l0.8 1.6s83.616 16.608 153.12 16.896c72.704 0.288 153.088-16.896 153.088-16.896l0.832-1.6c9.472-3.744 16.224-12.8 16.224-23.52 0-2.208-0.736-4.16-1.28-6.176l1.216-2.464z"  horiz-adv-x="1024" />

    
    <glyph glyph-name="zongjiao" unicode="&#58919;" d="M567.493226 875.102551c-16.597974 27.896595-57.992921 27.896595-74.590895 0l-77.190577-129.584182h229.172025L567.493226 875.102551zM968.544269 600.036128c16.098035 28.296546-4.0995 63.692225-36.195581 63.692225H777.66757l114.885976-197.275918 75.990723 133.583693z m-799.902355-134.383595l115.385915 197.975833H128.546808c-32.19607 0-52.393604-35.395679-36.195581-63.692225l76.290687-134.283608z m682.216721-81.989992c-2.69967 2.499695-5.099378 5.499329-6.999145 8.898914l-157.980715 271.066911h-311.961919c-0.89989-3.699548-2.299719-7.499085-4.399463-10.998658L213.436446 384.762407l155.680996-267.367362H688.978396c1.499817 0 3.099622-0.099988 4.599439-0.299964l150.081679 257.668546c2.099744 3.399585 4.499451 6.399219 7.199121 8.898914zM78.452923 180.187379c-16.597974-27.796607 4.199487-62.592359 37.395435-62.592359h161.680264l-116.98572 200.37554-82.089979-137.783181z m903.689687 0l-80.890126 135.683438-115.585891-198.275797h159.080581c33.195948 0 53.993409 34.695765 37.395436 62.592359z m-487.940437-286.96497c16.098035-28.296546 56.293128-28.296546 72.491151 0l80.890125 142.282632H413.212059l80.990114-142.282632z"  horiz-adv-x="1024" />

    
    <glyph glyph-name="rili1" unicode="&#58881;" d="M844.338 705.968h-38.135v11.331c0 33.965-27.655 61.729-61.456 61.729h-0.907c-33.801 0-61.456-27.765-61.456-61.729v-11.331h-339.872v11.331c0 33.965-27.654 61.729-61.456 61.729h-0.935c-33.8 0-61.456-27.765-61.456-61.729v-11.331h-38.053c-33.801 0-61.456-27.793-61.456-61.704v-590.138c0-33.966 27.654-61.731 61.456-61.731h663.723c33.801 0 61.456 27.766 61.456 61.731v590.138c0 33.912-27.654 61.704-61.456 61.704zM706.968 717.3c0 20.41 16.517 37.036 36.874 37.036h0.907c20.329 0 36.874-16.627 36.874-37.036v-109.799c0-20.412-16.544-37.037-36.874-37.037h-0.907c-20.357 0-36.874 16.625-36.874 37.037v109.799zM243.251 717.3c0 20.41 16.516 37.036 36.874 37.036h0.935c20.301 0 36.874-16.627 36.874-37.036v-109.799c0-20.412-16.573-37.037-36.874-37.037h-0.935c-20.357 0-36.874 16.625-36.874 37.037v109.799zM844.338 41.75h-663.723c-6.667 0-12.292 5.735-12.292 12.375v433.895h688.305v-433.895c0-6.64-5.624-12.375-12.291-12.375zM258.659 399.645h113.4v-55.8h-113.4v55.8zM456.659 399.645h112.5v-55.8h-112.5v55.8zM653.759 399.645h110.7v-55.8h-110.7v55.8zM258.659 286.244h113.4v-54.9h-113.4v54.9zM456.659 286.244h112.5v-54.9h-112.5v54.9zM653.759 286.244h110.7v-54.9h-110.7v54.9zM258.659 175.54499999999996h113.4v-57.6h-113.4v57.6zM456.659 175.54499999999996h112.5v-57.6h-112.5v57.6zM653.759 175.54499999999996h110.7v-57.6h-110.7v57.6z"  horiz-adv-x="1024" />

    
    <glyph glyph-name="tuichu" unicode="&#58884;" d="M512 384c-15.36 0-25.6 12.8-25.6 28.16V739.84c0 15.36 10.24 28.16 25.6 28.16s25.6-12.8 25.6-28.16v-327.68c0-15.36-10.24-28.16-25.6-28.16zM512-25.6c-209.92 0-378.88 166.4-378.88 373.76 0 128 66.56 243.2 176.64 312.32 12.8 7.68 28.16 5.12 35.84-7.68 7.68-12.8 5.12-28.16-7.68-35.84-94.72-58.88-151.04-161.28-151.04-271.36C184.32 171.52 330.24 25.6 512 25.6s327.68 145.92 327.68 322.56c0 110.08-56.32 209.92-151.04 271.36-12.8 7.68-15.36 23.04-7.68 35.84 7.68 12.8 23.04 15.36 35.84 7.68 110.08-69.12 176.64-186.88 176.64-312.32C890.88 140.8 721.92-25.6 512-25.6z"  horiz-adv-x="1024" />

    
    <glyph glyph-name="motuoche" unicode="&#58889;" d="M807.374 372.044c67.55 0 122.541-54.956 122.541-122.505 0-67.566-54.991-122.525-122.54-122.525-67.579 0-122.476 54.959-122.476 122.525-0.001 67.548 54.896 122.505 122.475 122.505m0 47.808c-94.061 0-170.297-76.24-170.297-170.313 0-94.062 76.236-170.33 170.297-170.33 94.126 0 170.33 76.268 170.33 170.33 0 94.073-76.204 170.313-170.33 170.313zM216.563 372.044c67.547 0 122.538-54.956 122.538-122.505 0-67.566-54.992-122.525-122.538-122.525-67.582 0-122.475 54.959-122.475 122.525 0 67.548 54.894 122.505 122.475 122.505m0 47.808c-94.061 0-170.268-76.24-170.268-170.313 0-94.062 76.207-170.33 170.268-170.33 94.124 0 170.298 76.268 170.298 170.33 0 94.073-76.174 170.313-170.298 170.313zM565.15 223.5H216.563v52.073h240.574L328.541 404.12l27.684 27.655H74.775l69.481 88.684h406.75l127.422 73.56 92.983-97.643L565.15 223.501zM791.643 247.256L756.444 488.32 571.365 653.18l-72.495-21.643-9.131 30.555 89.557 26.7L786.35 504.413 823.17 251.87zM766.34 483.754c-16.874-2.41-34.728 25.148-39.96 61.49-5.235 36.36 4.313 67.834 21.089 70.228 16.809 2.426 34.598-25.132 39.8-61.445 5.326-36.419-4.153-67.863-20.93-70.273z"  horiz-adv-x="1024" />

    
    <glyph glyph-name="wenjianjia" unicode="&#58917;" d="M912.486 443.959H225.415c-25.518 0-47.091-16.669-54.521-39.729l-59.946-184.682v510.65h286.299c0-63.238 51.229-114.467 114.471-114.467h286.236v-114.469h57.229V615.731c0 31.588-25.639 57.236-57.229 57.236H511.65c-31.586 0-57.234 25.645-57.234 57.231 0 31.589-25.58 57.234-57.234 57.234H110.946c-31.587 0-57.234-25.646-57.234-57.234v-686.941c0-31.589 25.646-57.229 57.234-57.229h686.943c25.518 0 47.091 16.663 54.521 39.729h0.063l117.116 360.974c0.001 31.587-25.516 57.169-57.106 57.234zM800.864 43.253H110.95l111.498 343.471h689.909L800.863 43.253z"  horiz-adv-x="1024" />

    
    <glyph glyph-name="qita1" unicode="&#58972;" d="M47.786667 878.933333C22.186667 878.933333 0 858.453333 0 831.146667v-354.986667c0-27.306667 22.186667-47.786667 47.786667-47.786667h354.986666c27.306667 0 47.786667 22.186667 47.786667 47.786667V831.146667c0 27.306667-22.186667 47.786667-47.786667 47.786666H47.786667z m0 0C22.186667 878.933333 0 858.453333 0 831.146667v-354.986667c0-27.306667 22.186667-47.786667 47.786667-47.786667h354.986666c27.306667 0 47.786667 22.186667 47.786667 47.786667V831.146667c0 27.306667-22.186667 47.786667-47.786667 47.786666H47.786667z m482.986666-209.92c-18.773333-18.773333-18.773333-49.493333 0-68.266666l204.8-204.8c18.773333-18.773333 49.493333-18.773333 68.266667 0l204.8 204.8c18.773333 18.773333 18.773333 49.493333 0 68.266666l-204.8 204.8c-18.773333 18.773333-49.493333 18.773333-68.266667 0l-204.8-204.8z m0 0c-18.773333-18.773333-18.773333-49.493333 0-68.266666l204.8-204.8c18.773333-18.773333 49.493333-18.773333 68.266667 0l204.8 204.8c18.773333 18.773333 18.773333 49.493333 0 68.266666l-204.8 204.8c-18.773333 18.773333-49.493333 18.773333-68.266667 0l-204.8-204.8z m68.266667-337.92c-27.306667 0-47.786667-22.186667-47.786667-47.786666v-354.986667c0-27.306667 22.186667-47.786667 47.786667-47.786667h354.986667c27.306667 0 47.786667 22.186667 47.786666 47.786667V283.306667c0 27.306667-22.186667 47.786667-47.786666 47.786666H599.04z m0 0c-27.306667 0-47.786667-22.186667-47.786667-47.786666v-354.986667c0-27.306667 22.186667-47.786667 47.786667-47.786667h354.986667c27.306667 0 47.786667 22.186667 47.786666 47.786667V283.306667c0 27.306667-22.186667 47.786667-47.786666 47.786666H599.04z m-551.253333 0c-27.306667 0-47.786667-22.186667-47.786667-47.786666v-354.986667c0-27.306667 22.186667-47.786667 47.786667-47.786667h354.986666c27.306667 0 47.786667 22.186667 47.786667 47.786667V283.306667c0 27.306667-22.186667 47.786667-47.786667 47.786666H47.786667z m0 0c-27.306667 0-47.786667-22.186667-47.786667-47.786666v-354.986667c0-27.306667 22.186667-47.786667 47.786667-47.786667h354.986666c27.306667 0 47.786667 22.186667 47.786667 47.786667V283.306667c0 27.306667-22.186667 47.786667-47.786667 47.786666H47.786667z m0 0"  horiz-adv-x="1024" />

    
    <glyph glyph-name="youliao" unicode="&#58979;" d="M227.157333 895.886222a29.240889 29.240889 0 0 1-29.696-29.696v-63.146666h210.147556V866.304A30.094222 30.094222 0 0 1 377.912889 896c0.113778-0.113778-150.755556-0.113778-150.755556-0.113778z m555.747556-1021.269333c43.804444 0 79.928889 34.872889 79.928889 78.677333V396.913778c0 30.947556-16.782222 65.763556-37.319111 81.180444L482.417778 735.971556c-12.913778 10.296889-28.330667 14.222222-46.364445 14.222222H196.209778a41.870222 41.870222 0 0 1-42.609778-41.244445v-758.272c0-43.804444 36.067556-78.677333 79.928889-78.677333h549.376v2.616889z m-391.964445 288.824889a67.697778 67.697778 0 0 0-68.266666-67.015111 67.697778 67.697778 0 0 0-68.323556 67.015111c0 29.696 14.165333 67.072 68.266667 180.565333 54.044444-114.744889 68.266667-152.120889 68.266667-180.565333z m350.72 269.539555c20.650667-15.36 23.210667-42.609778 7.793778-63.146666a43.861333 43.861333 0 0 0-36.124444-16.782223 46.648889 46.648889 0 0 0-28.330667 9.045334L439.921778 546.531556c-20.650667 15.36-23.210667 42.609778-7.736889 63.146666a46.648889 46.648889 0 0 0 64.512 7.736889l244.963555-184.433778z"  horiz-adv-x="1024" />

    
    <glyph glyph-name="feiji" unicode="&#58882;" d="M580.732121-124.152242c-21.131636-3.599515-37.112242 19.393939-26.127515 38.105212l170.883879 290.940121 114.563879 30.409697c37.236364 9.774545 121.080242 43.752727 213.984969 83.471515 13.901576 5.988848 25.755152-11.884606 14.770425-22.341818l-72.486788-69.56994a51.324121 51.324121 0 0 0 48.438303-30.72 51.075879 51.075879 0 0 0-26.437818-67.335757l-192.698182-84.495515c-48.593455-61.47103-102.710303-129.830788-130.699637-143.918546-12.008727-6.17503-25.258667-9.929697-39.315394-12.35006l-74.876121-12.194909zM208.896 191.146667c-21.286788-33.512727 7.912727-79.499636 59.081697-58.554182l559.879758 148.883394c87.226182 23.179636 478.611394 200.083394 559.321212 240.950303 33.82303 13.901576 205.948121 101.34497 178.796606 154.748121-20.417939 40.866909-76.955152 35.033212-144.942546 41.053091-52.565333 4.437333-107.333818 18.525091-144.942545 8.564364-95.666424-25.072485-193.536-60.602182-291.281455-102.524122L752.484848 693.837576l26.437819 11.32606a61.502061 61.502061 0 0 1 32.457697 80.554667 61.222788 61.222788 0 0 1-80.523637 32.457697l-148.231757-63.208727L279.645091 883.246545C253.393455 894.231273 226.583273 896 199.835152 886.163394L100.196848 849.764848a17.035636 17.035636 0 0 1-4.468363-30.223515l538.903273-369.912242a6702.917818 6702.917818 0 0 1-212.774788-123.500606l-298.821818 66.808242a122.84897 122.84897 0 0 1-68.173576-3.785697l-25.258667-8.564363a17.035636 17.035636 0 0 1-5.15103-29.540849l184.444121-159.899151z"  horiz-adv-x="1582" />

    
    <glyph glyph-name="weizhi" unicode="&#58880;" d="M514.68733867 867.90867627c-205.46787733 0-372.19201813-169.14514667-372.1920192-378.24780907 0-79.9193952 24.5648064-154.24035093 66.31133333-215.2872512 2.02587307-3.51471573 3.85418027-6.96394027 6.33631253-10.0867968l253.48522454-324.42790613c12.67480747-16.98524587 29.3991776-25.1214848 46.12464-25.1214848 16.7254624 0 33.38434133 8.13514773 46.0580576 25.1214848l253.551808 324.42790613c2.35224 3.1239488 4.2471296 6.50877333 6.0754368 9.69712213 41.8775104 61.24010027 66.5067168 135.4333472 66.5067168 215.61252587-0.1298912 209.16815253-166.6597408 378.312208-372.2575104 378.31220907z m0-529.62617707c-82.25198827 0-148.88968747 67.87876587-148.88968747 151.3128768 0 83.5640032 66.6376992 151.378368 148.88968747 151.378368 82.186496 0 148.88968747-67.8143648 148.88968746-151.378368 0-83.43301973-66.636608-151.3128768-148.88968746-151.3128768z"  horiz-adv-x="1024" />

    
    <glyph glyph-name="gerenzhongxin" unicode="&#58893;" d="M613.476-125.091H410.53c-192.502 0-344.539 0-344.539 99.844v19.973c0 187.12 154.58 339.332 344.54 339.332H613.47c189.959 0 344.545-152.212 344.545-339.332v-19.973c-0.035-99.844-159.718-99.844-344.54-99.844z m-111.637 479.18c-150.833 0-273.483 120.905-273.483 269.522 0 148.61 122.656 269.48 273.483 269.48s273.483-120.87 273.483-269.48c0-148.617-122.685-269.522-273.483-269.522z"  horiz-adv-x="1024" />

    
    <glyph glyph-name="chakanxiangqing" unicode="&#59085;" d="M804.572 661.929H219.429c-20.215 0-36.571-16.358-36.571-36.572 0-20.179 16.356-36.571 36.571-36.571h585.143c20.215 0 36.571 16.392 36.571 36.571 0 20.214-16.357 36.572-36.571 36.572z m0-241.357H219.429c-20.215 0-36.571-16.357-36.571-36.572s16.356-36.571 36.571-36.571h585.143c20.215 0 36.571 16.356 36.571 36.571s-16.357 36.572-36.571 36.572zM599.784 179.214H219.429c-20.215 0-36.571-16.391-36.571-36.572 0-20.214 16.356-36.57 36.571-36.57h380.355c20.215 0 36.572 16.356 36.572 36.57 0.001 20.181-16.357 36.572-36.572 36.572zM943.572 896H80.429C36.072 896 0 859.929 0 815.536v-863.07C0-91.891 36.072-128 80.429-128h863.143c44.287 0 80.429 36.109 80.429 80.466V815.536C1024 859.929 987.859 896 943.572 896z m7.286-943.534c0-4.036-3.287-7.322-7.286-7.322H80.429c-4 0-7.287 3.286-7.287 7.322V815.536c0 4.035 3.287 7.321 7.287 7.321h863.143c3.999 0 7.286-3.286 7.286-7.321v-863.07z"  horiz-adv-x="1024" />

    
    <glyph glyph-name="qita2" unicode="&#59217;" d="M397.720207 353.706183H97.630708c-41.44166 0-75.015064-33.575124-75.015063-75.001302v-300.065415c0-41.426178 33.573404-74.996141 75.015063-74.996141h300.060255c41.426178 0 75.001302 33.569963 75.001302 74.996141V278.704881c0.037845 41.396934-33.537279 75.001302-74.972058 75.001302z m525.124367 0H622.78432c-41.44166 0-75.015064-33.575124-75.015064-75.001302v-300.065415c0-41.426178 33.575124-74.996141 75.015064-74.996141h300.060254c41.414136 0 75.009903 33.569963 75.009903 74.996141V278.704881c-0.005161 41.396934-33.595767 75.001302-75.009903 75.001302z m0 510.124107H622.78432c-41.44166 0-75.015064-33.578565-75.015064-75.009903v-300.065415c0-41.424458 33.575124-75.009903 75.015064-75.009903h300.060254c41.414136 0 75.009903 33.585445 75.009903 75.009903V788.818667c-0.005161 41.433059-33.595767 75.011623-75.009903 75.011623z m-525.124367 0H97.630708c-41.44166 0-75.015064-33.578565-75.015063-75.009903v-300.065415c0-41.424458 33.573404-75.009903 75.015063-75.009903h300.060255c41.426178 0 75.001302 33.585445 75.001302 75.009903V788.818667c0.037845 41.433059-33.537279 75.011623-74.972058 75.011623z m0 0"  horiz-adv-x="1024" />

    
    <glyph glyph-name="wenjianjia1" unicode="&#59016;" d="M909.8 687.4H454.4c-11.2 0-21.5 6.2-26.8 16.1l-40.7 76.1a62.551 62.551 0 0 1-55.2 33.1H157.6c-51.4 0-93-41.6-93-93v-659.1c0-51.4 41.6-93 93-93h721.7c51.4 0 93 41.6 93 93V624.8c0.1 34.5-28 62.6-62.5 62.6zM127.2 701c0 27.1 21.9 49 49 49h126.1c18.1 0 34.7-10 43.2-25.9l39.3-73.4c8.5-15.9 25.1-25.9 43.2-25.9h432.7c27.1 0 49-21.9 49-49V529c-0.4 0-0.8 0.1-1.2 0.1H128.4c-0.4 0-0.8-0.1-1.2-0.1V701z m782.6-641.7c0-16.1-13.1-29.2-29.2-29.2H156.4c-16.1 0-29.2 13.1-29.2 29.2V124l1.1 313.4c0.1 16.1 13.1 29.1 29.2 29.1l723.1-1.1c16.1 0 29.2-13.1 29.2-29.2V124h0.1v-64.7z"  horiz-adv-x="1024" />

    
    <glyph glyph-name="rili" unicode="&#58916;" d="M784 736H672v32c0 17.6-14.4 32-32 32s-32-14.4-32-32v-32H416v32c0 17.6-14.4 32-32 32s-32-14.4-32-32v-32H240c-88 0-160-72-160-160v-448c0-88 72-160 160-160h544c88 0 160 72 160 160V576c0 88-72 160-160 160z m-544-64h112v-32c0-17.6 14.4-32 32-32s32 14.4 32 32v32h192v-32c0-17.6 14.4-32 32-32s32 14.4 32 32v32h112c52.8 0 96-43.2 96-96v-32H144v32c0 52.8 43.2 96 96 96z m544-640H240c-52.8 0-96 43.2-96 96V480h736v-352c0-52.8-43.2-96-96-96zM288 224h64c17.6 0 32-14.4 32-32s-14.4-32-32-32h-64c-17.6 0-32 14.4-32 32s14.4 32 32 32z m192 0h64c17.6 0 32-14.4 32-32s-14.4-32-32-32h-64c-17.6 0-32 14.4-32 32s14.4 32 32 32z m192 0h64c17.6 0 32-14.4 32-32s-14.4-32-32-32h-64c-17.6 0-32 14.4-32 32s14.4 32 32 32zM288 384h64c17.6 0 32-14.4 32-32s-14.4-32-32-32h-64c-17.6 0-32 14.4-32 32s14.4 32 32 32z m192 0h64c17.6 0 32-14.4 32-32s-14.4-32-32-32h-64c-17.6 0-32 14.4-32 32s14.4 32 32 32z m192 0h64c17.6 0 32-14.4 32-32s-14.4-32-32-32h-64c-17.6 0-32 14.4-32 32s14.4 32 32 32z"  horiz-adv-x="1024" />

    
    <glyph glyph-name="sousuo" unicode="&#59020;" d="M991.690667-116.437333a36.266667 36.266667 0 0 0-51.797334 0l-120.064 120.234666c19.456 15.146667 37.76 31.616 54.698667 49.536l117.162667-117.290666c14.293333-14.506667 14.293333-37.973333 0-52.48z m-488.106667 35.328c-266.24 0-482.048 218.709333-482.048 488.405333C21.536 677.12 237.344 895.744 503.584 895.744s482.048-218.666667 482.048-488.448c0-269.696-215.808-488.405333-482.048-488.405333z m0 888.021333c-217.813333 0-394.410667-178.858667-394.410667-399.616 0-220.672 176.64-399.616 394.410667-399.616 217.813333 0 394.368 178.944 394.368 399.616 0 220.757333-176.554667 399.616-394.368 399.616z"  horiz-adv-x="1024" />

    
    <glyph glyph-name="zhadan" unicode="&#59004;" d="M348.16 1.536c-165.888 1.024-299.52 135.168-298.496 300.032C50.176 464.896 184.32 597.504 348.16 596.992c165.376-0.512 298.496-136.704 297.472-305.152-0.512-159.232-136.192-291.328-297.472-290.304z m215.04 315.904c-17.408-72.192-55.808-128-116.224-167.424-60.928-39.424-127.488-49.664-200.704-37.376 53.248-47.104 151.04-57.856 229.376-6.656 69.12 45.568 110.08 132.608 87.552 211.456zM833.024 653.312c10.752-7.168 20.48-13.312 29.696-19.456-38.4-60.416-122.88-60.928-163.328-2.56-7.168 10.24-12.8 20.992-20.48 30.72-29.696 36.864-80.384 31.744-103.424-11.264 12.8-7.68 26.112-15.36 38.912-23.552 21.504-13.312 26.624-30.72 13.824-52.736-9.728-17.408-20.48-34.816-32.256-53.76-46.08 51.2-101.888 83.968-169.472 101.376 13.312 22.016 24.576 42.496 37.888 61.952 9.728 13.824 26.112 16.384 43.008 8.192 10.752-5.12 20.992-11.776 32.768-18.432 4.096 5.632 8.192 11.264 12.288 16.384 39.936 50.176 114.688 50.688 154.624 0.512 6.656-8.192 12.288-16.896 17.92-25.6 29.696-43.52 69.12-48.128 108.032-11.776zM948.224 590.336c-23.04 0.512-32.256 6.656-31.744 20.992 0.512 12.8 8.192 18.432 20.48 17.92 23.04-0.512 34.816-7.68 33.792-21.504-1.024-13.824-9.216-18.432-22.528-17.408zM871.424 746.496c-1.024-28.16-10.24-40.96-24.064-39.424-12.288 1.536-17.92 9.728-17.408 21.504 0.512 20.48 10.752 35.328 24.064 31.744 7.68-2.048 13.824-10.752 17.408-13.824zM896 680.448c2.56 16.896 19.968 33.28 33.792 32.768 11.264-0.512 18.432-6.144 17.92-18.432 0-11.264-17.92-28.16-30.208-26.624-7.68 1.536-14.336 8.192-21.504 12.288z"  horiz-adv-x="1024" />

    
    <glyph glyph-name="kemu" unicode="&#59039;" d="M955.733333 896a136.533333 136.533333 0 0 0 136.533334-136.533333v-750.933334a136.533333 136.533333 0 0 0-136.533334-136.533333H136.533333a136.533333 136.533333 0 0 0-136.533333 136.533333V759.466667a136.533333 136.533333 0 0 0 136.533333 136.533333h819.2zM238.933333 145.066667h-68.266666a34.133333 34.133333 0 0 1 0-68.266667h68.266666a34.133333 34.133333 0 0 1 0 68.266667z m682.666667 0h-546.133333a34.133333 34.133333 0 0 1 0-68.266667h546.133333a34.133333 34.133333 0 0 1 0 68.266667z m0 273.066666h-546.133333a34.133333 34.133333 0 0 1 0-68.266666h546.133333a34.133333 34.133333 0 0 1 0 68.266666z m-682.666667 0h-68.266666a34.133333 34.133333 0 0 1 0-68.266666h68.266666a34.133333 34.133333 0 0 1 0 68.266666z m682.666667 273.066667h-546.133333a34.133333 34.133333 0 0 1 0-68.266667h546.133333a34.133333 34.133333 0 0 1 0 68.266667z m-682.666667 0h-68.266666a34.133333 34.133333 0 0 1 0-68.266667h68.266666a34.133333 34.133333 0 0 1 0 68.266667z"  horiz-adv-x="1092" />

    


  </font>
</defs>
</svg>
